<svg xmlns="http://www.w3.org/2000/svg" viewBox="0 0 1200 806" width="100%" role="img" aria-label="Eval run">
<rect x="0.5" y="0.5" width="1199" height="805" rx="8" fill="#ffffff" stroke="#d0d7de"/>
<text x="56" y="58" font-family="ui-monospace, 'SF Mono', Menlo, Consolas, monospace" font-size="22" fill="#57606a" letter-spacing="4">LATEST EVAL RUN</text>
<text x="56" y="108" font-family="-apple-system, 'Segoe UI', Roboto, Helvetica, Arial, sans-serif" font-size="40" fill="#1f2328" font-weight="700">17 of 20 checks passed</text>
<text x="56" y="140" font-family="ui-monospace, 'SF Mono', Menlo, Consolas, monospace" font-size="22" fill="#57606a">qwen-plus, four frozen cases</text>
<text x="56" y="198" font-family="-apple-system, 'Segoe UI', Roboto, Helvetica, Arial, sans-serif" font-size="24" fill="#1f2328">concentrated-maintainer</text>
<rect x="520" y="176" width="560" height="28" rx="4" fill="#f6f8fa" stroke="#d0d7de" stroke-width="1"/>
<rect x="520" y="176" width="448" height="28" fill="#345c8f"/>
<text x="1096" y="198" font-family="ui-monospace, 'SF Mono', Menlo, Consolas, monospace" font-size="24" fill="#1f2328">4/5</text>
<text x="56" y="256" font-family="-apple-system, 'Segoe UI', Roboto, Helvetica, Arial, sans-serif" font-size="24" fill="#1f2328">distributed-review</text>
<rect x="520" y="234" width="560" height="28" rx="4" fill="#f6f8fa" stroke="#d0d7de" stroke-width="1"/>
<rect x="520" y="234" width="448" height="28" fill="#345c8f"/>
<text x="1096" y="256" font-family="ui-monospace, 'SF Mono', Menlo, Consolas, monospace" font-size="24" fill="#1f2328">4/5</text>
<text x="56" y="314" font-family="-apple-system, 'Segoe UI', Roboto, Helvetica, Arial, sans-serif" font-size="24" fill="#1f2328">mixed-signals</text>
<rect x="520" y="292" width="560" height="28" rx="4" fill="#f6f8fa" stroke="#d0d7de" stroke-width="1"/>
<rect x="520" y="292" width="448" height="28" fill="#345c8f"/>
<text x="1096" y="314" font-family="ui-monospace, 'SF Mono', Menlo, Consolas, monospace" font-size="24" fill="#1f2328">4/5</text>
<text x="56" y="372" font-family="-apple-system, 'Segoe UI', Roboto, Helvetica, Arial, sans-serif" font-size="24" fill="#1f2328">sparse-solo-repo</text>
<rect x="520" y="350" width="560" height="28" rx="4" fill="#f6f8fa" stroke="#d0d7de" stroke-width="1"/>
<rect x="520" y="350" width="560" height="28" fill="#1a7f37"/>
<text x="1096" y="372" font-family="ui-monospace, 'SF Mono', Menlo, Consolas, monospace" font-size="24" fill="#1f2328">5/5</text>
<line x1="56" y1="392" x2="1144" y2="392" stroke="#d0d7de" stroke-width="1"/>
<text x="56" y="462" font-family="-apple-system, 'Segoe UI', Roboto, Helvetica, Arial, sans-serif" font-size="40" fill="#1f2328" font-weight="700">20 of 20 checks passed</text>
<text x="56" y="494" font-family="ui-monospace, 'SF Mono', Menlo, Consolas, monospace" font-size="22" fill="#57606a">claude-sonnet-5, four frozen cases</text>
<text x="56" y="552" font-family="-apple-system, 'Segoe UI', Roboto, Helvetica, Arial, sans-serif" font-size="24" fill="#1f2328">concentrated-maintainer</text>
<rect x="520" y="530" width="560" height="28" rx="4" fill="#f6f8fa" stroke="#d0d7de" stroke-width="1"/>
<rect x="520" y="530" width="560" height="28" fill="#1a7f37"/>
<text x="1096" y="552" font-family="ui-monospace, 'SF Mono', Menlo, Consolas, monospace" font-size="24" fill="#1f2328">5/5</text>
<text x="56" y="610" font-family="-apple-system, 'Segoe UI', Roboto, Helvetica, Arial, sans-serif" font-size="24" fill="#1f2328">distributed-review</text>
<rect x="520" y="588" width="560" height="28" rx="4" fill="#f6f8fa" stroke="#d0d7de" stroke-width="1"/>
<rect x="520" y="588" width="560" height="28" fill="#1a7f37"/>
<text x="1096" y="610" font-family="ui-monospace, 'SF Mono', Menlo, Consolas, monospace" font-size="24" fill="#1f2328">5/5</text>
<text x="56" y="668" font-family="-apple-system, 'Segoe UI', Roboto, Helvetica, Arial, sans-serif" font-size="24" fill="#1f2328">mixed-signals</text>
<rect x="520" y="646" width="560" height="28" rx="4" fill="#f6f8fa" stroke="#d0d7de" stroke-width="1"/>
<rect x="520" y="646" width="560" height="28" fill="#1a7f37"/>
<text x="1096" y="668" font-family="ui-monospace, 'SF Mono', Menlo, Consolas, monospace" font-size="24" fill="#1f2328">5/5</text>
<text x="56" y="726" font-family="-apple-system, 'Segoe UI', Roboto, Helvetica, Arial, sans-serif" font-size="24" fill="#1f2328">sparse-solo-repo</text>
<rect x="520" y="704" width="560" height="28" rx="4" fill="#f6f8fa" stroke="#d0d7de" stroke-width="1"/>
<rect x="520" y="704" width="560" height="28" fill="#1a7f37"/>
<text x="1096" y="726" font-family="ui-monospace, 'SF Mono', Menlo, Consolas, monospace" font-size="24" fill="#1f2328">5/5</text>
<text x="56" y="776" font-family="ui-monospace, 'SF Mono', Menlo, Consolas, monospace" font-size="22" fill="#57606a">npm run eval   (writes evals/last-run.json, which drew this panel)</text>
</svg>